# AST/ASF file generated using VICON BodyLanguage
# -----------------------------------------------
:version 1.10
:name VICON
:units
  mass 1.0
  length 0.45
  angle deg
:documentation
   .ast/.asf automatically generated from VICON data using
   VICON BodyBuilder and BodyLanguage model FoxedUp or BRILLIANT.MOD
:root
   order TX TY TZ RX RY RZ
   axis XYZ
   position 0 0 0  
   orientation 0 0 0 
:bonedata
  begin
     id 1 
     name lhipjoint
     direction 0.653368 -0.678499 0.335782 
     length 2.51848 
     axis 0 0 0  XYZ
  end
  begin
     id 2 
     name lfemur
     direction 0.34202 -0.939693 0  
     length 6.57749  
     axis 0 0 20  XYZ
    dof rx ry rz
    limits (-160.0 20.0)
           (-70.0 70.0)
           (-60.0 70.0)
  end
  begin
     id 3 
     name ltibia
     direction 0.34202 -0.939693 0   
     length 7.94618   
     axis 0 0 20   XYZ
    dof rx
    limits (-10.0 170.0)
  end
  begin
     id 4 
     name lfoot
     direction 0.0811271 -0.222895 0.971461   
     length 2.31339   
     axis -90 7.62852e-016 20   XYZ
    dof rx rz
    limits (-45.0 90.0)
           (-70.0 20.0)
  end
  begin
     id 5 
     name ltoes
     direction 1.53568e-011 -4.21885e-011 1   
     length 1.15935   
     axis -90 7.62852e-016 20   XYZ
    dof rx
    limits (-90.0 20.0)
  end
  begin
     id 6 
     name rhipjoint
     direction -0.640058 -0.688614 0.340788   
     length 2.48149  
     axis 0 0 0  XYZ 
  end
  begin
     id 7 
     name rfemur
     direction -0.34202 -0.939693 0   
     length 6.57875   
     axis 0 0 -20   XYZ
    dof rx ry rz
    limits (-160.0 20.0)
           (-70.0 70.0)
           (-70.0 60.0)
  end
  begin
     id 8 
     name rtibia
     direction -0.34202 -0.939693 0   
     length 7.977   
     axis 0 0 -20   XYZ
    dof rx
    limits (-10.0 170.0)
 end
 begin
     id 9 
     name rfoot
     direction -0.0979793 -0.269196 0.958089   
     length 2.19857  
     axis -90 -7.62852e-016 -20   XYZ
    dof rx rz
    limits (-45.0 90.0)
           (-20.0 70.0)
  end
  begin
     id 10 
     name rtoes
     direction -1.53556e-011 -4.21868e-011 1   
     length 1.09838   
     axis -90 -7.62852e-016 -20   XYZ
    dof rx
    limits (-90.0 20.0)
  end
  begin
     id 11 
     name lowerback
     direction 0.0149039 0.998517 -0.0523597   
     length 2.10809   
     axis 0 0 0   XYZ
    dof rx ry rz
    limits (-20.0 45.0)
           (-30.0 30.0)
           (-30.0 30.0)
  end
  begin
     id 12 
     name upperback
     direction -0.00882659 0.999418 -0.0329624   
     length 2.1102   
     axis 0 0 0   XYZ
    dof rx ry rz
    limits (-20.0 45.0)
           (-30.0 30.0)
           (-30.0 30.0)
  end
  begin
     id 13 
     name thorax
     direction -0.0165585 0.999826 -0.0085833   
     length 2.11039   
     axis 0 0 0   XYZ
    dof rx ry rz
    limits (-20.0 45.0)
           (-30.0 30.0)
           (-30.0 30.0)
  end
  begin
     id 14 
     name lowerneck
     direction -0.0130877 0.999911 0.00260353   
     length 1.73253   
     axis 0 0 0   XYZ
    dof rx ry rz
    limits (-20.0 45.0)
           (-30.0 30.0)
           (-30.0 30.0)
  end
  begin
     id 15 
     name upperneck
     direction -0.0348454 0.928205 -0.370435   
     length 1.66692   
     axis 0 0 0   XYZ
    dof rx ry rz
    limits (-20.0 45.0)
           (-30.0 30.0)
           (-30.0 30.0)
  end
  begin
     id 16
     name head
     direction -0.00807754 0.992494 -0.122026  
     length 1.72765  
     axis 0 0 0   XYZ
    dof rx ry rz
    limits (-20.0 45.0)
           (-30.0 30.0)
           (-30.0 30.0)
  end
  begin
     id 17 
     name lclavicle
     direction 0.987582 0.144023 0.0627671  
     length 3.49235  
     axis 0 0 0   XYZ
    dof ry rz
    limits (-20.0 10.0)
           (0.0 20.0)
  end
  begin
     id 18 
     name lhumerus
     direction 1 -4.48958e-011 -1.45183e-018   
     length 5.41917   
     axis 180 -30 -90   XYZ
    dof rx ry rz
    limits (-60.0 90.0)
           (-90.0 90.0)
           (-90.0 90.0)
  end
  begin
     id 19
     name lradius
     direction 1 -4.48999e-011 5.75106e-027   
     length 2.44373   
     axis 180 -30 -90   XYZ
    dof rx
    limits (-10.0 170.0)
  end
  begin
     id 20
     name lwrist
     direction 1 -4.48987e-011 1.53461e-026   
     length 1.22186   
     axis -1.09697e-014 90 90   XYZ
    dof ry
    limits (-180.0 0.0)
 end
  begin
     id 21 
     name lhand
     direction 1 -4.48881e-011 3.06923e-026   
     length 0.727502   
     axis -1.95843e-014 90 90   XYZ
    dof rx rz
    limits (-90.0 90.0)
           (-45.0 45.0)
  end
  begin
     id 22 
     name lfingers
     direction 1 -4.48907e-011 6.13845e-026   
     length 0.586531   
     axis -3.91686e-014 90 90   XYZ
    dof rx
    limits (0.0 90.0)
  end
  begin
     id 23
     name lthumb
     direction 0.707107 -6.3487e-011 0.707107   
     length 0.842145   
     axis -90 45 2.85299e-015   XYZ
    dof rx rz
    limits (-45.0 45.0)
           (-45.0 45.0)
  end
  begin
     id 24 
     name rclavicle
     direction -0.980998 0.169556 0.0943023   
     length 3.29272  
     axis 0 0 0   XYZ 
    dof ry rz
    limits (-10.0 20.0)
           (-20.0 0.0)
  end
  begin
     id 25 
     name rhumerus
     direction -1 -1.83355e-005 2.45537e-005  
     length 5.58976   
     axis 180 30 90   XYZ
    dof rx ry rz
    limits (-90.0 60.0)
           (-90.0 90.0)
           (-90.0 90.0)
  end
  begin
     id 26 
     name rradius
     direction -1 -4.48967e-011 5.97228e-027   
     length 2.4806   
     axis 180 30 90   XYZ
    dof rx
    limits (-10.0 170.0)
  end
  begin
     id 27 
     name rwrist
     direction -1 -4.48963e-011 1.53461e-026   
     length 1.2403   
     axis -1.09697e-014 -90 -90   XYZ
    dof ry
    limits (-180.0 0.0)
  end
  begin
     id 28
     name rhand
     direction -1 -4.48881e-011 3.06923e-026   
     length 0.816009   
     axis -1.95843e-014 -90 -90   XYZ
    dof rx rz
    limits (-90.0 90.0)
           (-45.0 45.0)
  end
  begin
     id 29
     name rfingers
     direction -1 -4.49018e-011 6.13845e-026   
     length 0.657887   
     axis -3.91686e-014 -90 -90   XYZ
    dof rx
    limits (0.0 90.0)
  end
  begin
     id 30
     name rthumb
     direction -0.707107 -6.34872e-011 0.707107   
     length 0.944599   
     axis -90 -45 -2.85299e-015   XYZ
    dof rx rz
    limits (-45.0 45.0)
           (-45.0 45.0)
  end
:hierarchy
  begin
    root lhipjoint rhipjoint lowerback
    lhipjoint lfemur
    lfemur ltibia
    ltibia lfoot
    lfoot ltoes
    rhipjoint rfemur
    rfemur rtibia
    rtibia rfoot
    rfoot rtoes
    lowerback upperback
    upperback thorax
    thorax lowerneck lclavicle rclavicle
    lowerneck upperneck
    upperneck head
    lclavicle lhumerus
    lhumerus lradius
    lradius lwrist
    lwrist lhand lthumb
    lhand lfingers
    rclavicle rhumerus
    rhumerus rradius
    rradius rwrist
    rwrist rhand rthumb
    rhand rfingers
  end

#!OML:ASF F:\VICON\USERDATA\INSTALL\rory3\rory3.ASF
:FULLY-SPECIFIED
:DEGREES
103
root 1.01985 16.4311 -8.07427 24.4786 -0.948665 -4.56062
lowerback -12.3877 2.89872 0.0623935
upperback -10.0519 4.01064 6.71299
thorax -4.23274 2.30521 7.43174
lowerneck -8.91772 -4.9889 -1.60535
upperneck 33.0114 -6.80322 -0.535759
head 12.4116 -3.2632 -0.800565
rclavicle 4.02539e-014 4.29375e-014
rhumerus -7.9794 -21.3493 0.470511
rradius 11.0486
rwrist 68.4031
rhand 19.9846 -5.04558
rfingers 7.12502
rthumb 44.5207 -28.7315
lclavicle 4.02539e-014 4.29375e-014
lhumerus -32.2309 15.192 -5.4366
lradius 15.6665
lwrist -54.4431
lhand 8.78838 31.8894
lfingers 7.12502
lthumb 33.9763 58.6784
rfemur -40.7832 26.0381 -11.8927
rtibia 41.3951
rfoot -82.5355 13.1651
rtoes 62.2973
lfemur -33.9614 -10.1029 -27.6799
ltibia 33.457
lfoot -32.0693 18.5589
ltoes 16.8623
104
root 1.05386 16.433 -8.08025 24.1081 0.345829 -4.49602
lowerback -11.9735 2.71184 0.270207
upperback -10.011 3.77156 6.90913
thorax -4.38196 2.18293 7.48517
lowerneck -8.55553 -5.19056 -1.89776
upperneck 32.7361 -6.99998 -0.609848
head 12.234 -3.39954 -0.784831
rclavicle 1.09332e-014 1.59028e-014
rhumerus -5.3235 -14.782 0.72249
rradius 11.3242
rwrist 62.177
rhand 20.0836 -5.4053
rfingers 7.12502
rthumb 44.6129 -29.0557
lclavicle 1.09332e-014 1.59028e-014
lhumerus -29.4226 14.5837 -5.75399
lradius 15.7412
lwrist -54.3248
lhand 9.39319 31.5242
lfingers 7.12502
lthumb 34.5506 58.184
rfemur -41.9581 25.5052 -11.8349
rtibia 41.6696
rfoot -82.8024 12.421
rtoes 62.0408
lfemur -33.5216 -10.5637 -27.6259
ltibia 33.3207
lfoot -31.7208 18.0333
ltoes 16.9308
105
root 1.08244 16.4312 -8.08884 23.7165 1.44462 -4.31888
lowerback -11.4159 2.5425 0.24707
upperback -9.96047 3.5817 7.07441
thorax -4.62007 2.09965 7.6366
lowerneck -8.45899 -5.3461 -2.12402
upperneck 32.707 -7.13756 -0.720225
head 12.2091 -3.49986 -0.800897
rclavicle 1.60022e-014 6.36111e-015
rhumerus -2.78209 -8.83119 1.48974
rradius 11.5764
rwrist 56.0466
rhand 19.5336 -5.54295
rfingers 7.12502
rthumb 44.1003 -29.3883
lclavicle 1.60022e-014 6.36111e-015
lhumerus -26.5243 11.9902 -5.24842
lradius 16.2149
lwrist -51.764
lhand 9.92877 31.9057
lfingers 7.12502
lthumb 35.0588 58.448
rfemur -43.3536 25.4 -12.1499
rtibia 41.8996
rfoot -83.2295 11.7927
rtoes 61.5075
lfemur -33.0614 -10.6282 -27.8578
ltibia 33.2145
lfoot -31.1612 17.5415
ltoes 16.3237
106
root 1.11438 16.43 -8.0953 23.1691 2.6774 -4.35434
lowerback -10.6719 2.33974 0.536967
upperback -9.84688 3.33181 7.33273
thorax -4.87037 1.96816 7.70096
lowerneck -8.75086 -5.43842 -2.18661
upperneck 32.8422 -7.14007 -1.07034
head 12.3125 -3.54555 -0.935469
rclavicle 6.38099e-014 4.6118e-014
rhumerus -0.252444 -1.74779 2.79185
rradius 12.0721
rwrist 48.3885
rhand 19.5333 -6.26354
rfingers 7.12502
rthumb 44.1 -30.109
lclavicle 6.38099e-014 4.6118e-014
lhumerus -23.8889 10.7892 -5.43496
lradius 16.583
lwrist -50.5366
lhand 10.6805 32.3131
lfingers 7.12502
lthumb 35.7715 58.6854
rfemur -44.4159 24.7691 -11.8266
rtibia 42.0782
rfoot -83.0676 11.1428
rtoes 60.9781
lfemur -32.4395 -10.8011 -27.8537
ltibia 33.1139
lfoot -30.5682 17.3842
ltoes 15.4116
107
root 1.1484 16.4312 -8.09666 22.6726 3.93619 -4.37055
lowerback -10.2104 2.26194 0.869185
upperback -10.1588 3.26437 7.37432
thorax -5.4404 1.93228 7.53086
lowerneck -7.14212 -5.72025 -2.14732
upperneck 32.5822 -7.48878 -1.33834
head 11.8613 -3.74116 -1.01511
rclavicle 9.83984e-015 1.59028e-015
rhumerus 1.5029 5.74518 4.78827
rradius 12.9047
rwrist 41.4376
rhand 20.1715 -7.1635
rfingers 7.12502
rthumb 44.6948 -30.7823
lclavicle 9.83984e-015 1.59028e-015
lhumerus -20.5729 8.91268 -5.64132
lradius 16.9621
lwrist -49.4437
lhand 10.947 32.5911
lfingers 7.12502
lthumb 36.024 58.9017
rfemur -45.4161 24.0946 -11.4771
rtibia 42.2457
rfoot -82.7081 10.8274
rtoes 60.8025
lfemur -31.8372 -11.2456 -27.7975
ltibia 33.0362
lfoot -30.1955 17.1986
ltoes 14.8617
108
root 1.18071 16.4312 -8.09852 22.2864 5.27668 -4.26561
lowerback -9.88751 2.04039 1.07437
upperback -10.2231 2.99082 7.50802
thorax -5.65203 1.7924 7.53379
lowerneck -6.61056 -5.93099 -2.42173
upperneck 32.532 -7.716 -1.43321
head 11.7442 -3.88837 -1.00812
rclavicle -2.08724e-014 -3.33958e-014
rhumerus 3.86751 11.4145 7.13569
rradius 13.6907
rwrist 35.5308
rhand 20.564 -7.95894
rfingers 7.12502
rthumb 45.0601 -31.4348
lclavicle -2.08724e-014 -3.33958e-014
lhumerus -17.6851 7.75648 -6.10519
lradius 17.2547
lwrist -48.2759
lhand 10.6385 32.4144
lfingers 7.12502
lthumb 35.7317 58.7963
rfemur -46.5466 23.7004 -11.4113
rtibia 42.3721
rfoot -82.2403 10.9894
rtoes 61.2916
lfemur -31.3229 -11.7764 -27.8249
ltibia 32.989
lfoot -30.0054 16.6143
ltoes 15.0325
109
root 1.21347 16.4332 -8.10645 21.803 6.84574 -4.35474
lowerback -9.36114 1.77828 1.52935
upperback -10.1894 2.6606 7.73301
thorax -5.85667 1.60822 7.48616
lowerneck -6.34703 -6.05721 -2.60829
upperneck 32.4393 -7.81105 -1.59383
head 11.6564 -3.97181 -1.03305
rclavicle -4.87022e-015 -5.56597e-014
rhumerus 6.46811 16.3834 9.86793
rradius 14.7035
rwrist 29.6213
rhand 20.76 -9.12712
rfingers 7.12502
rthumb 45.2424 -32.5306
lclavicle -4.87022e-015 -5.56597e-014
lhumerus -14.9458 7.24789 -6.67919
lradius 17.5884
lwrist -47.2988
lhand 10.7694 32.5581
lfingers 7.12502
lthumb 35.8557 58.9099
rfemur -47.5752 23.4191 -11.0684
rtibia 42.4642
rfoot -81.5821 11.3182
rtoes 62.2067
lfemur -30.7569 -12.0318 -27.6962
ltibia 32.9452
lfoot -29.5787 16.0017
ltoes 14.1552
